<?xml version="1.0" standalone="no"?>
<!DOCTYPE svg PUBLIC "-//W3C//DTD SVG 20010904//EN"
 "http://www.w3.org/TR/2001/REC-SVG-20010904/DTD/svg10.dtd">
<svg version="1.0" xmlns="http://www.w3.org/2000/svg"
 width="3598.000000pt" height="2411.000000pt" viewBox="0 0 3598.000000 2411.000000"
 preserveAspectRatio="xMidYMid meet">

<g transform="translate(0.000000,2411.000000) scale(0.100000,-0.100000)"
fill="#000000" stroke="none">
<path d="M7720 19163 c-173 -17 -252 -28 -360 -49 -993 -196 -1827 -887 -2203
-1824 -92 -228 -149 -441 -188 -700 l-24 -155 0 -4365 0 -4365 24 -155 c79
-523 268 -976 576 -1385 519 -689 1304 -1119 2165 -1185 106 -8 2904 -10
10380 -8 l10235 3 135 22 c703 113 1264 399 1740 889 458 470 739 1060 827
1735 17 126 18 387 18 4454 0 4089 -1 4327 -18 4450 -97 706 -389 1299 -873
1777 -132 129 -179 171 -292 257 -400 304 -859 497 -1387 583 l-140 23 -10290
1 c-5659 0 -10306 -1 -10325 -3z m12299 -4648 c439 -60 834 -212 1206 -463
387 -261 708 -584 1032 -1040 l30 -42 88 121 c137 190 274 350 449 524 439
438 915 717 1441 846 1090 266 2210 -162 2811 -1077 523 -793 524 -1822 3
-2615 -101 -153 -176 -247 -304 -378 -472 -484 -1079 -752 -1765 -778 -603
-22 -1205 163 -1720 530 -347 248 -726 638 -970 1000 -14 20 -27 37 -30 36 -3
0 -38 -46 -78 -103 -224 -317 -505 -613 -791 -836 -431 -335 -879 -530 -1396
-607 -182 -26 -562 -24 -750 5 -566 88 -1060 335 -1450 727 -365 366 -597 806
-685 1305 -31 174 -39 522 -16 700 62 469 253 902 559 1265 408 484 1025 813
1657 884 52 6 111 13 130 15 74 9 440 -4 549 -19z m-10012 -1452 l1003 -678
-3 -304 -2 -304 -1019 -734 c-561 -403 -1022 -733 -1025 -732 -3 0 -111 145
-238 321 -232 320 -232 321 -210 337 118 83 1512 1105 1514 1109 1 4 -342 234
-762 512 -420 278 -772 510 -781 517 -18 13 -20 11 319 481 l139 193 31 -20
c17 -10 482 -324 1034 -698z m5153 -3718 l0 -275 -1370 0 -1370 0 0 275 0 275
1370 0 1370 0 0 -275z"/>
<path d="M19456 13649 c-733 -85 -1322 -618 -1452 -1314 -26 -138 -26 -382 0
-520 128 -688 700 -1214 1424 -1310 445 -59 882 47 1287 313 391 256 787 706
1055 1198 l33 61 -63 109 c-399 697 -927 1186 -1486 1378 -242 83 -543 115
-798 85z m1034 -1579 l0 -250 -770 0 -770 0 0 250 0 250 770 0 770 0 0 -250z"/>
<path d="M24740 13653 c-742 -70 -1431 -610 -1933 -1514 l-37 -65 78 -135
c337 -583 775 -1027 1237 -1254 261 -128 476 -182 765 -192 257 -8 479 29 704
117 522 206 892 637 1008 1174 29 136 32 425 5 561 -139 689 -703 1204 -1427
1301 -94 12 -307 16 -400 7z m348 -1075 l2 -258 255 0 255 0 0 -250 0 -250
-255 0 -255 0 0 -260 0 -260 -250 0 -250 0 -2 258 -3 257 -257 3 -258 2 0 250
0 250 260 0 260 0 0 260 0 260 248 -2 247 -3 3 -257z"/>
</g>
</svg>
